<svg enable-background="new 0 0 1000 1000" version="1.1" viewBox="0 0 1e3 1e3" xml:space="preserve"
	xmlns="http://www.w3.org/2000/svg">
	<style>
		.cloud { fill: #201e25 } 
	</style>
<path class="cloud" d="m384.2 404s2.2-88.5 108.4-79.7 157.1 130.6 157.1 130.6 84.1-57.5 139.4-13.3c55.3 44.3 50.9 97.4 50.9 97.4s46.5-2.2 88.5 24.3 39.8 31 57.5 44.3-31 44.3-31 44.3-66.4 15.5-115.1 0-70.8-19.9-70.8-19.9-6.6 22.1-35.4 17.7-46.7-17.7-46.7-17.7-37.3 46.5-99.3 39.8c-62-6.6-101.8-22.1-101.8-22.1s-53.1 38.9-137.2 22.8-150.5-42.7-150.5-42.7-46.5 4.4-77.5 0-88.5 8.9-104 4.4c-15.5-4.4 0-28.8 0-28.8l53.3-28.8s2.2-50.9 42-66.4 106.2 15.5 106.2 15.5l15.5-25.7s-44.3-89.4 26.6-100.4c70.8-11.1 123.9 4.4 123.9 4.4z"/>
</svg>